<svg width="32" height="33" viewBox="0 0 32 33" fill="none" xmlns="http://www.w3.org/2000/svg">
<g id="ic:round-airline-seat-recline-normal">
<path id="Vector" d="M10.12 7.71349C9.08004 6.67349 9.08004 4.98016 10.12 3.94016C11.16 2.90016 12.8534 2.90016 13.8934 3.94016C14.9334 4.98016 14.9334 6.67349 13.8934 7.71349C12.84 8.76682 11.16 8.76682 10.12 7.71349ZM8.00004 21.8335V11.1668C8.00004 10.4335 7.40004 9.83349 6.66671 9.83349C5.93337 9.83349 5.33337 10.4335 5.33337 11.1668V21.8335C5.33337 25.5135 8.32004 28.5002 12 28.5002H18.6667C19.4 28.5002 20 27.9002 20 27.1668C20 26.4335 19.4 25.8335 18.6667 25.8335H12C9.78671 25.8335 8.00004 24.0468 8.00004 21.8335ZM25.7067 26.3002L20.68 21.2735C20.1867 20.7802 19.5067 20.5002 18.8 20.5002H15.3334V15.5935C16.7867 16.7802 18.88 17.8602 20.9334 18.2868C21.8267 18.4735 22.6667 17.8068 22.6667 16.9002C22.6667 16.1935 22.1467 15.6202 21.44 15.5002C19.5467 15.1802 17.6 14.1535 16.44 12.8735L14.5734 10.8068C14.32 10.5268 14 10.3002 13.6534 10.1402C13.2667 9.95349 12.8267 9.83349 12.3734 9.83349H12.3334C10.68 9.83349 9.33337 11.1802 9.33337 12.8335V20.5002C9.33337 22.7135 11.12 24.5002 13.3334 24.5002H20.0934L23.8 28.2068C24.32 28.7268 25.1867 28.7268 25.7067 28.2068C26.24 27.6868 26.24 26.8335 25.7067 26.3002Z" fill="#91CB82"/>
</g>
</svg>
