<svg width="24" height="24" viewBox="0 0 24 24" fill="none" xmlns="http://www.w3.org/2000/svg">
<path id="airplane" d="M23.8836 15.8559L22.2181 14.1844L22.2169 14.1856C22.1472 14.1156 22.0518 14.0718 21.9463 14.0691L17.8855 13.9679C17.885 13.9679 17.885 13.9679 17.8841 13.9679C17.6905 13.7409 17.4846 13.5162 17.2621 13.2933L15.0536 11.0756L23.2853 6.81042C23.322 6.7917 23.3562 6.76654 23.3862 6.73583C23.5399 6.57903 23.5381 6.32657 23.3815 6.1724L21.1884 4.00617C21.108 3.91461 20.9864 3.86078 20.856 3.87248L19.1245 4.02489L17.8782 2.77342C17.6167 2.51072 17.2717 2.37879 16.9274 2.37879C16.5827 2.37879 16.2377 2.51072 15.9762 2.77342C15.7146 3.03612 15.5831 3.38248 15.5831 3.72826C15.5831 3.93333 15.6347 4.13547 15.7266 4.32357L14.4858 4.43269L13.239 3.18122C12.9774 2.91881 12.6324 2.78688 12.2881 2.78688C11.9449 2.78688 11.6005 2.91881 11.3389 3.18122L11.3136 3.20725C11.0677 3.46702 10.9447 3.80198 10.9447 4.13635C10.9447 4.34112 10.9969 4.54356 11.0887 4.73137L8.94784 4.91947C8.94114 4.92005 8.93589 4.92415 8.9286 4.92473L6.63783 2.62481C5.74554 1.72877 4.90254 1.00943 3.9222 0.548683C2.92815 0.0812101 1.8163 -0.110401 0.409348 0.0630728C0.221561 0.0858907 0.0804286 0.237132 0.0617665 0.418504C-0.109108 1.82765 0.081595 2.94163 0.54669 3.93801C1.00566 4.92239 1.72211 5.7687 2.61352 6.66415L4.8833 8.94301C4.87571 8.96905 4.86288 8.99304 4.86055 9.02083L4.67335 11.1698C4.48673 11.0776 4.28465 11.0256 4.08053 11.0256C3.73616 11.0256 3.3912 11.1569 3.12964 11.4202V11.422C2.86808 11.6847 2.73657 12.0304 2.73657 12.3756C2.73657 12.71 2.85962 13.045 3.10573 13.3047L3.12964 13.3308L4.37592 14.5819L4.26716 15.8279C4.08053 15.7357 3.87846 15.6836 3.67434 15.6836C3.32997 15.6836 2.98501 15.8156 2.72345 16.0783C2.46189 16.341 2.33038 16.6873 2.33038 17.0331C2.33038 17.3789 2.46131 17.7255 2.72345 17.9882L3.96973 19.2394L3.81781 20.978C3.80643 21.1087 3.8598 21.231 3.95107 21.3117L6.10858 23.5148C6.26225 23.6716 6.51361 23.674 6.66961 23.5198C6.70081 23.4891 6.7253 23.4546 6.74397 23.4186L11.0173 15.1029L13.2378 17.3327C13.4929 17.5886 13.7501 17.8194 14.0105 18.0374L14.1073 21.9384C14.1097 22.0448 14.1534 22.1408 14.2231 22.2101L14.2219 22.2113L15.8875 23.8828C16.0429 24.0391 16.2949 24.0391 16.4497 23.8828C16.5162 23.8161 16.5541 23.7319 16.5637 23.645L17.3712 19.6153C17.9334 19.6911 18.534 19.6937 19.1863 19.6136C19.3741 19.5905 19.515 19.4395 19.5336 19.2581C19.6164 18.5759 19.608 17.952 19.5228 17.3681L23.6448 16.5349C23.7311 16.5253 23.8157 16.4875 23.8819 16.4205C24.0391 16.2646 24.0391 16.0116 23.8836 15.8559ZM16.6591 4.24108L16.5384 4.11821C16.4322 4.01144 16.3789 3.86985 16.3789 3.72767C16.3789 3.58609 16.4322 3.4445 16.5384 3.33743C16.6445 3.23066 16.7862 3.17712 16.9274 3.17712C17.0682 3.17712 17.2093 3.23066 17.316 3.33743L18.0905 4.11499L16.7509 4.23259L16.6591 4.24108ZM12.0198 4.64829L11.8991 4.52718C11.7929 4.42069 11.7396 4.27852 11.7396 4.13547C11.7396 4.00003 11.7877 3.86517 11.8836 3.76102L11.8985 3.74464C12.0049 3.63845 12.1464 3.58492 12.2881 3.58492C12.4289 3.58492 12.57 3.63845 12.6768 3.74523L13.4515 4.52308L12.1367 4.63863L12.0198 4.64829ZM11.9052 5.46037L14.3695 5.24418C14.3695 5.24418 14.3695 5.24418 14.3701 5.24418L16.5445 5.05316C16.5445 5.05316 16.5445 5.05316 16.5451 5.05316L19.0088 4.83697C19.0088 4.83697 19.0088 4.83697 19.0093 4.83697L20.7438 4.68456L22.4359 6.35494L14.4654 10.4847L9.65875 5.65871L11.9052 5.46037ZM3.67697 12.7504C3.58132 12.6456 3.53292 12.5108 3.53292 12.3756C3.53292 12.2335 3.58628 12.0913 3.69242 11.9854C3.79856 11.8786 3.94028 11.8251 4.08112 11.8251C4.22283 11.8251 4.36309 11.8786 4.47011 11.9854L4.59228 12.1065L4.54388 12.662L4.4669 13.5426L3.67697 12.7504ZM3.28681 17.4236C3.18067 17.3169 3.12731 17.1753 3.12731 17.0331C3.12731 16.8915 3.18067 16.7502 3.28681 16.6429C3.39295 16.5361 3.53467 16.4825 3.67551 16.4825C3.81664 16.4825 3.95748 16.5361 4.0645 16.6429L4.18697 16.7657L4.12311 17.4971L4.06216 18.2015L3.28681 17.4236ZM6.29112 22.5641L4.62728 20.8653L4.7789 19.1236C4.7789 19.1236 4.7789 19.1236 4.7789 19.123L4.85822 18.2109L5.18451 14.4655L5.19239 14.3728L5.60295 9.66587L10.4291 14.5114L6.29112 22.5641ZM15.9278 22.7931L14.8967 21.7581L14.8194 18.635C15.1626 18.8591 15.5131 19.0604 15.8837 19.2145C16.115 19.3111 16.3517 19.3918 16.5961 19.4585L15.9278 22.7931ZM18.7769 18.8533C17.7937 18.9328 16.9518 18.7959 16.1887 18.4785C15.3361 18.1237 14.5675 17.5368 13.8012 16.7675L3.1763 6.09956C2.33942 5.2591 1.67341 4.47657 1.26489 3.60071C0.896896 2.81204 0.728937 1.92711 0.819623 0.822789C1.91952 0.731226 2.80072 0.900019 3.58628 1.2692C4.45873 1.67934 5.23817 2.34866 6.07446 3.18853L16.6999 13.857C17.4653 14.6258 18.0497 15.3981 18.4037 16.2544C18.7201 17.0205 18.8563 17.8657 18.7769 18.8533ZM19.3578 16.5905C19.2954 16.3717 19.2234 16.1572 19.1371 15.949C18.9685 15.5403 18.7469 15.1547 18.495 14.7788L21.767 14.8601L22.7977 15.8951L19.3578 16.5905Z" fill="#B7B4B4"/>
</svg>
