<svg width="48" height="49" viewBox="0 0 48 49" fill="none" xmlns="http://www.w3.org/2000/svg">
<g id="airplane">
<path id="Vector" d="M9.77625 27.5C10.095 27.5 11.1628 27.4906 11.4638 27.4719L17.5481 27.3125C17.5798 27.3106 17.6113 27.3174 17.6393 27.3323C17.6672 27.3472 17.6905 27.3696 17.7066 27.3969L29.8547 42.1663C29.9284 42.2638 30.0224 42.3442 30.1302 42.4018C30.238 42.4594 30.357 42.4929 30.4791 42.5H33L26.1563 27.4062C26.1399 27.3717 26.1329 27.3335 26.1358 27.2954C26.1387 27.2573 26.1514 27.2206 26.1728 27.1889C26.1942 27.1572 26.2234 27.1317 26.2577 27.1147C26.2919 27.0978 26.33 27.09 26.3681 27.0922L37.7766 26.9234C37.8953 26.9198 38.0132 26.9443 38.1207 26.9948C38.2282 27.0453 38.3223 27.1204 38.3953 27.2141L41.8641 31.4328C42.1453 31.7984 42.6722 31.9953 43.1306 31.9953H44.8988C45.0197 31.9953 45.0019 31.8819 44.9691 31.7675L43.1091 25.0719C42.9685 24.7133 42.9685 24.3148 43.1091 23.9563L44.9709 17.2812C45.0263 17.0984 45.0197 17 44.805 17H43.125C42.3619 17 42.2578 17.0994 41.8678 17.5906L38.3334 21.875C38.2598 21.9679 38.1655 22.0425 38.0582 22.093C37.9508 22.1434 37.8333 22.1683 37.7147 22.1656L26.4009 21.9125C26.3597 21.9116 26.3194 21.9006 26.2834 21.8805C26.2474 21.8605 26.2169 21.8319 26.1944 21.7974C26.172 21.7628 26.1583 21.7233 26.1546 21.6823C26.1509 21.6412 26.1572 21.5999 26.1731 21.5619L33 6.5H30.5025C30.3807 6.5071 30.2619 6.54053 30.1543 6.59799C30.0466 6.65545 29.9527 6.73556 29.8791 6.83281L17.7056 21.5937C17.6691 21.65 17.5181 21.6781 17.4534 21.6781L11.4628 21.5188C11.1534 21.5 10.095 21.4906 9.77531 21.4906C5.625 21.4906 3 22.6316 3 24.5C3 26.3684 5.61375 27.5 9.77625 27.5Z" fill="black" stroke="black" stroke-width="1.5" stroke-linecap="round" stroke-linejoin="round"/>
</g>
</svg>
