<svg width="49" height="49" viewBox="0 0 49 49" fill="none" xmlns="http://www.w3.org/2000/svg">
<g id="building">
<path id="Vector" d="M41 17L30.5 17L30.5 6.5C30.5 5.30653 30.0259 4.16193 29.182 3.31802C28.3381 2.47411 27.1935 2 26 2L8 2C6.80653 2 5.66193 2.47411 4.81802 3.31802C3.97411 4.16193 3.5 5.30653 3.5 6.5L3.5 45.5C3.5 45.8978 3.65804 46.2794 3.93934 46.5607C4.22064 46.842 4.60218 47 5 47H14.75C14.9489 47 15.1397 46.921 15.2803 46.7803C15.421 46.6397 15.5 46.4489 15.5 46.25L15.5 39.5422C15.5 38.735 16.1206 38.0422 16.9278 38.0019C17.1306 37.9921 17.3333 38.0236 17.5236 38.0945C17.7139 38.1654 17.8878 38.2741 18.0348 38.4142C18.1818 38.5543 18.2988 38.7227 18.3788 38.9094C18.4587 39.096 18.5 39.297 18.5 39.5L18.5 46.25C18.5 46.4489 18.579 46.6397 18.7197 46.7803C18.8603 46.921 19.0511 47 19.25 47L44 47C44.3978 47 44.7794 46.842 45.0607 46.5607C45.342 46.2794 45.5 45.8978 45.5 45.5L45.5 21.5C45.5 20.3065 45.0259 19.1619 44.182 18.318C43.3381 17.4741 42.1935 17 41 17ZM9.695 40.9878C9.38434 41.0284 9.06875 40.9708 8.79254 40.8229C8.51632 40.675 8.29334 40.4444 8.15489 40.1633C8.01644 39.8823 7.96946 39.5649 8.02057 39.2558C8.07167 38.9467 8.21828 38.6614 8.43982 38.4398C8.66136 38.2183 8.94671 38.0717 9.25582 38.0206C9.56493 37.9695 9.88228 38.0164 10.1633 38.1549C10.4444 38.2933 10.675 38.5163 10.8229 38.7925C10.9708 39.0688 11.0284 39.3843 10.9878 39.695C10.9449 40.0228 10.7949 40.3273 10.5611 40.5611C10.3273 40.7949 10.0228 40.9449 9.695 40.9878ZM9.695 33.4878C9.38434 33.5284 9.06875 33.4708 8.79254 33.3229C8.51632 33.175 8.29334 32.9444 8.15489 32.6633C8.01644 32.3823 7.96946 32.0649 8.02057 31.7558C8.07167 31.4467 8.21828 31.1614 8.43982 30.9398C8.66136 30.7183 8.94671 30.5717 9.25582 30.5206C9.56493 30.4695 9.88228 30.5164 10.1633 30.6549C10.4444 30.7933 10.675 31.0163 10.8229 31.2925C10.9708 31.5688 11.0284 31.8843 10.9878 32.195C10.9449 32.5228 10.7949 32.8273 10.5611 33.0611C10.3273 33.2949 10.0228 33.4449 9.695 33.4878ZM9.695 25.9878C9.38434 26.0284 9.06875 25.9708 8.79254 25.8229C8.51632 25.675 8.29334 25.4444 8.15489 25.1633C8.01644 24.8823 7.96946 24.5649 8.02057 24.2558C8.07167 23.9467 8.21828 23.6614 8.43982 23.4398C8.66136 23.2183 8.94671 23.0717 9.25582 23.0206C9.56493 22.9695 9.88228 23.0164 10.1633 23.1549C10.4444 23.2933 10.675 23.5163 10.8229 23.7925C10.9708 24.0688 11.0284 24.3843 10.9878 24.695C10.9449 25.0228 10.7949 25.3273 10.5611 25.5611C10.3273 25.7949 10.0228 25.9449 9.695 25.9878ZM9.695 18.4878C9.38434 18.5284 9.06875 18.4708 8.79254 18.3229C8.51632 18.175 8.29334 17.9444 8.15489 17.6633C8.01644 17.3823 7.96946 17.0649 8.02057 16.7558C8.07167 16.4467 8.21828 16.1614 8.43982 15.9398C8.66136 15.7183 8.94671 15.5717 9.25582 15.5206C9.56493 15.4695 9.88228 15.5164 10.1633 15.6549C10.4444 15.7933 10.675 16.0163 10.8229 16.2925C10.9708 16.5688 11.0284 16.8843 10.9878 17.195C10.9449 17.5228 10.7949 17.8273 10.5611 18.0611C10.3273 18.2949 10.0228 18.4449 9.695 18.4878ZM9.695 10.9878C9.38434 11.0284 9.06875 10.9708 8.79254 10.8229C8.51632 10.675 8.29334 10.4444 8.15489 10.1633C8.01644 9.88228 7.96946 9.56493 8.02057 9.25582C8.07167 8.94671 8.21828 8.66136 8.43982 8.43982C8.66136 8.21828 8.94671 8.07167 9.25582 8.02057C9.56493 7.96946 9.88228 8.01644 10.1633 8.15489C10.4444 8.29334 10.675 8.51632 10.8229 8.79254C10.9708 9.06875 11.0284 9.38434 10.9878 9.695C10.9449 10.0228 10.7949 10.3273 10.5611 10.5611C10.3273 10.7949 10.0228 10.9449 9.695 10.9878ZM17.195 33.4878C16.8843 33.5284 16.5688 33.4708 16.2925 33.3229C16.0163 33.175 15.7933 32.9444 15.6549 32.6633C15.5164 32.3823 15.4695 32.0649 15.5206 31.7558C15.5717 31.4467 15.7183 31.1614 15.9398 30.9398C16.1614 30.7183 16.4467 30.5717 16.7558 30.5206C17.0649 30.4695 17.3823 30.5164 17.6633 30.6549C17.9444 30.7933 18.175 31.0163 18.3229 31.2925C18.4708 31.5688 18.5284 31.8843 18.4878 32.195C18.4449 32.5228 18.2949 32.8273 18.0611 33.0611C17.8273 33.2949 17.5228 33.4449 17.195 33.4878ZM17.195 25.9878C16.8843 26.0284 16.5688 25.9708 16.2925 25.8229C16.0163 25.675 15.7933 25.4444 15.6549 25.1633C15.5164 24.8823 15.4695 24.5649 15.5206 24.2558C15.5717 23.9467 15.7183 23.6614 15.9398 23.4398C16.1614 23.2183 16.4467 23.0717 16.7558 23.0206C17.0649 22.9695 17.3823 23.0164 17.6633 23.1549C17.9444 23.2933 18.175 23.5163 18.3229 23.7925C18.4708 24.0688 18.5284 24.3843 18.4878 24.695C18.4449 25.0228 18.2949 25.3273 18.0611 25.5611C17.8273 25.7949 17.5228 25.9449 17.195 25.9878ZM17.195 18.4878C16.8843 18.5284 16.5688 18.4708 16.2925 18.3229C16.0163 18.175 15.7933 17.9444 15.6549 17.6633C15.5164 17.3823 15.4695 17.0649 15.5206 16.7558C15.5717 16.4467 15.7183 16.1614 15.9398 15.9398C16.1614 15.7183 16.4467 15.5717 16.7558 15.5206C17.0649 15.4695 17.3823 15.5164 17.6633 15.6549C17.9444 15.7933 18.175 16.0163 18.3229 16.2925C18.4708 16.5688 18.5284 16.8843 18.4878 17.195C18.4449 17.5228 18.2949 17.8273 18.0611 18.0611C17.8273 18.2949 17.5228 18.4449 17.195 18.4878ZM17.195 10.9878C16.8843 11.0284 16.5688 10.9708 16.2925 10.8229C16.0163 10.675 15.7933 10.4444 15.6549 10.1633C15.5164 9.88228 15.4695 9.56493 15.5206 9.25582C15.5717 8.94671 15.7183 8.66136 15.9398 8.43982C16.1614 8.21828 16.4467 8.07167 16.7558 8.02057C17.0649 7.96946 17.3823 8.01644 17.6633 8.15489C17.9444 8.29334 18.175 8.51632 18.3229 8.79254C18.4708 9.06875 18.5284 9.38434 18.4878 9.695C18.4449 10.0228 18.2949 10.3273 18.0611 10.5611C17.8273 10.7949 17.5228 10.9449 17.195 10.9878ZM24.695 40.9878C24.3843 41.0284 24.0688 40.9708 23.7925 40.8229C23.5163 40.675 23.2933 40.4444 23.1549 40.1633C23.0164 39.8823 22.9695 39.5649 23.0206 39.2558C23.0717 38.9467 23.2183 38.6614 23.4398 38.4398C23.6614 38.2183 23.9467 38.0717 24.2558 38.0206C24.5649 37.9695 24.8823 38.0164 25.1633 38.1549C25.4444 38.2933 25.675 38.5163 25.8229 38.7925C25.9708 39.0688 26.0284 39.3843 25.9878 39.695C25.9449 40.0228 25.7949 40.3273 25.5611 40.5611C25.3273 40.7949 25.0228 40.9449 24.695 40.9878ZM24.695 33.4878C24.3843 33.5284 24.0688 33.4708 23.7925 33.3229C23.5163 33.175 23.2933 32.9444 23.1549 32.6633C23.0164 32.3823 22.9695 32.0649 23.0206 31.7558C23.0717 31.4467 23.2183 31.1614 23.4398 30.9398C23.6614 30.7183 23.9467 30.5717 24.2558 30.5206C24.5649 30.4695 24.8823 30.5164 25.1633 30.6549C25.4444 30.7933 25.675 31.0163 25.8229 31.2925C25.9708 31.5688 26.0284 31.8843 25.9878 32.195C25.9449 32.5228 25.7949 32.8273 25.5611 33.0611C25.3273 33.2949 25.0228 33.4449 24.695 33.4878ZM24.695 25.9878C24.3843 26.0284 24.0688 25.9708 23.7925 25.8229C23.5163 25.675 23.2933 25.4444 23.1549 25.1633C23.0164 24.8823 22.9695 24.5649 23.0206 24.2558C23.0717 23.9467 23.2183 23.6614 23.4398 23.4398C23.6614 23.2183 23.9467 23.0717 24.2558 23.0206C24.5649 22.9695 24.8823 23.0164 25.1633 23.1549C25.4444 23.2933 25.675 23.5163 25.8229 23.7925C25.9708 24.0688 26.0284 24.3843 25.9878 24.695C25.9449 25.0228 25.7949 25.3273 25.5611 25.5611C25.3273 25.7949 25.0228 25.9449 24.695 25.9878ZM24.695 18.4878C24.3843 18.5284 24.0688 18.4708 23.7925 18.3229C23.5163 18.175 23.2933 17.9444 23.1549 17.6633C23.0164 17.3823 22.9695 17.0649 23.0206 16.7558C23.0717 16.4467 23.2183 16.1614 23.4398 15.9398C23.6614 15.7183 23.9467 15.5717 24.2558 15.5206C24.5649 15.4695 24.8823 15.5164 25.1633 15.6549C25.4444 15.7933 25.675 16.0163 25.8229 16.2925C25.9708 16.5688 26.0284 16.8843 25.9878 17.195C25.9449 17.5228 25.7949 17.8273 25.5611 18.0611C25.3273 18.2949 25.0228 18.4449 24.695 18.4878ZM24.695 10.9878C24.3843 11.0284 24.0688 10.9708 23.7925 10.8229C23.5163 10.675 23.2933 10.4444 23.1549 10.1633C23.0164 9.88228 22.9695 9.56493 23.0206 9.25582C23.0717 8.94671 23.2183 8.66136 23.4398 8.43982C23.6614 8.21828 23.9467 8.07167 24.2558 8.02057C24.5649 7.96946 24.8823 8.01644 25.1633 8.15489C25.4444 8.29334 25.675 8.51632 25.8229 8.79254C25.9708 9.06875 26.0284 9.38434 25.9878 9.695C25.9449 10.0228 25.7949 10.3273 25.5611 10.5611C25.3273 10.7949 25.0228 10.9449 24.695 10.9878ZM42.125 44L30.5 44L30.5 20L41 20C41.3978 20 41.7794 20.158 42.0607 20.4393C42.342 20.7206 42.5 21.1022 42.5 21.5L42.5 43.625C42.5 43.7245 42.4605 43.8198 42.3902 43.8902C42.3198 43.9605 42.2245 44 42.125 44Z" fill="black"/>
<path id="Vector_2" d="M38 38C37.7033 38 37.4133 38.088 37.1666 38.2528C36.92 38.4176 36.7277 38.6519 36.6142 38.926C36.5006 39.2001 36.4709 39.5017 36.5288 39.7926C36.5867 40.0836 36.7296 40.3509 36.9393 40.5607C37.1491 40.7704 37.4164 40.9133 37.7074 40.9712C37.9983 41.0291 38.2999 40.9993 38.574 40.8858C38.8481 40.7723 39.0824 40.58 39.2472 40.3334C39.412 40.0867 39.5 39.7967 39.5 39.5C39.5 39.1022 39.342 38.7206 39.0607 38.4393C38.7794 38.158 38.3978 38 38 38ZM38 30.5C37.7033 30.5 37.4133 30.588 37.1666 30.7528C36.92 30.9176 36.7277 31.1519 36.6142 31.426C36.5006 31.7001 36.4709 32.0017 36.5288 32.2926C36.5867 32.5836 36.7296 32.8509 36.9393 33.0607C37.1491 33.2704 37.4164 33.4133 37.7074 33.4712C37.9983 33.5291 38.2999 33.4993 38.574 33.3858C38.8481 33.2723 39.0824 33.08 39.2472 32.8334C39.412 32.5867 39.5 32.2967 39.5 32C39.5 31.6022 39.342 31.2206 39.0607 30.9393C38.7794 30.658 38.3978 30.5 38 30.5ZM38 23C37.7033 23 37.4133 23.088 37.1666 23.2528C36.92 23.4176 36.7277 23.6519 36.6142 23.926C36.5006 24.2001 36.4709 24.5017 36.5288 24.7926C36.5867 25.0836 36.7296 25.3509 36.9393 25.5607C37.1491 25.7704 37.4164 25.9133 37.7074 25.9712C37.9983 26.0291 38.2999 25.9994 38.574 25.8858C38.8481 25.7723 39.0824 25.58 39.2472 25.3334C39.412 25.0867 39.5 24.7967 39.5 24.5C39.5 24.1022 39.342 23.7206 39.0607 23.4393C38.7794 23.158 38.3978 23 38 23ZM32 38C31.7033 38 31.4133 38.088 31.1666 38.2528C30.92 38.4176 30.7277 38.6519 30.6142 38.926C30.5006 39.2001 30.4709 39.5017 30.5288 39.7926C30.5867 40.0836 30.7296 40.3509 30.9393 40.5607C31.1491 40.7704 31.4164 40.9133 31.7074 40.9712C31.9983 41.0291 32.2999 40.9993 32.574 40.8858C32.8481 40.7723 33.0824 40.58 33.2472 40.3334C33.412 40.0867 33.5 39.7967 33.5 39.5C33.5 39.1022 33.342 38.7206 33.0607 38.4393C32.7794 38.158 32.3978 38 32 38ZM32 30.5C31.7033 30.5 31.4133 30.588 31.1666 30.7528C30.92 30.9176 30.7277 31.1519 30.6142 31.426C30.5006 31.7001 30.4709 32.0017 30.5288 32.2926C30.5867 32.5836 30.7296 32.8509 30.9393 33.0607C31.1491 33.2704 31.4164 33.4133 31.7074 33.4712C31.9983 33.5291 32.2999 33.4993 32.574 33.3858C32.8481 33.2723 33.0824 33.08 33.2472 32.8334C33.412 32.5867 33.5 32.2967 33.5 32C33.5 31.6022 33.342 31.2206 33.0607 30.9393C32.7794 30.658 32.3978 30.5 32 30.5ZM32 23C31.7033 23 31.4133 23.088 31.1666 23.2528C30.92 23.4176 30.7277 23.6519 30.6142 23.926C30.5006 24.2001 30.4709 24.5017 30.5288 24.7926C30.5867 25.0836 30.7296 25.3509 30.9393 25.5607C31.1491 25.7704 31.4164 25.9133 31.7074 25.9712C31.9983 26.0291 32.2999 25.9994 32.574 25.8858C32.8481 25.7723 33.0824 25.58 33.2472 25.3334C33.412 25.0867 33.5 24.7967 33.5 24.5C33.5 24.1022 33.342 23.7206 33.0607 23.4393C32.7794 23.158 32.3978 23 32 23Z" fill="black"/>
</g>
</svg>
