<svg width="42" height="42" viewBox="0 0 42 42" fill="none" xmlns="http://www.w3.org/2000/svg">
<g id="Frame 2608694">
<rect width="42" height="42" rx="4" fill="#EBF6F2"/>
<path id="Vector" d="M33 14.6428C33 13.7335 32.6388 12.8614 31.9958 12.2184C31.3528 11.5754 30.4807 11.2142 29.5714 11.2142H28.7143V10.3812C28.7143 9.91992 28.3596 9.52403 27.8984 9.50099C27.7825 9.49541 27.6667 9.51341 27.5579 9.55391C27.4492 9.59442 27.3498 9.65657 27.2658 9.73661C27.1818 9.81665 27.115 9.91292 27.0693 10.0196C27.0236 10.1262 27 10.241 27 10.3571V11.2142H15V10.3812C15 9.91992 14.6454 9.52403 14.1841 9.50099C14.0682 9.49541 13.9524 9.51341 13.8437 9.55391C13.7349 9.59442 13.6356 9.65657 13.5516 9.73661C13.4676 9.81665 13.4007 9.91292 13.355 10.0196C13.3093 10.1262 13.2857 10.241 13.2857 10.3571V11.2142H12.4286C11.5193 11.2142 10.6472 11.5754 10.0042 12.2184C9.36122 12.8614 9 13.7335 9 14.6428V15.2856C9 15.3425 9.02258 15.397 9.06276 15.4372C9.10295 15.4773 9.15745 15.4999 9.21429 15.4999H32.7857C32.8425 15.4999 32.8971 15.4773 32.9372 15.4372C32.9774 15.397 33 15.3425 33 15.2856V14.6428ZM9 30.0713C9 30.9807 9.36122 31.8527 10.0042 32.4957C10.6472 33.1387 11.5193 33.4999 12.4286 33.4999H29.5714C30.4807 33.4999 31.3528 33.1387 31.9958 32.4957C32.6388 31.8527 33 30.9807 33 30.0713V17.3749C33 17.3323 32.9831 17.2914 32.9529 17.2613C32.9228 17.2311 32.8819 17.2142 32.8393 17.2142H9.16071C9.11809 17.2142 9.07721 17.2311 9.04707 17.2613C9.01693 17.2914 9 17.3323 9 17.3749V30.0713ZM27.4286 18.9285C27.6829 18.9285 27.9314 19.0039 28.1429 19.1452C28.3543 19.2865 28.5191 19.4873 28.6164 19.7222C28.7137 19.9571 28.7392 20.2156 28.6896 20.465C28.64 20.7144 28.5175 20.9435 28.3377 21.1233C28.1579 21.3032 27.9288 21.4256 27.6794 21.4752C27.43 21.5248 27.1715 21.4994 26.9366 21.4021C26.7016 21.3047 26.5008 21.1399 26.3595 20.9285C26.2183 20.7171 26.1429 20.4685 26.1429 20.2142C26.1429 19.8732 26.2783 19.5462 26.5194 19.3051C26.7606 19.064 27.0876 18.9285 27.4286 18.9285ZM27.4286 23.2142C27.6829 23.2142 27.9314 23.2896 28.1429 23.4309C28.3543 23.5722 28.5191 23.773 28.6164 24.0079C28.7137 24.2428 28.7392 24.5013 28.6896 24.7508C28.64 25.0002 28.5175 25.2292 28.3377 25.4091C28.1579 25.5889 27.9288 25.7113 27.6794 25.7609C27.43 25.8105 27.1715 25.7851 26.9366 25.6878C26.7016 25.5905 26.5008 25.4257 26.3595 25.2142C26.2183 25.0028 26.1429 24.7542 26.1429 24.4999C26.1429 24.1589 26.2783 23.8319 26.5194 23.5908C26.7606 23.3497 27.0876 23.2142 27.4286 23.2142ZM23.1429 18.9285C23.3971 18.9285 23.6457 19.0039 23.8572 19.1452C24.0686 19.2865 24.2334 19.4873 24.3307 19.7222C24.428 19.9571 24.4535 20.2156 24.4039 20.465C24.3543 20.7144 24.2318 20.9435 24.052 21.1233C23.8722 21.3032 23.6431 21.4256 23.3937 21.4752C23.1443 21.5248 22.8858 21.4994 22.6508 21.4021C22.4159 21.3047 22.2151 21.1399 22.0738 20.9285C21.9325 20.7171 21.8571 20.4685 21.8571 20.2142C21.8571 19.8732 21.9926 19.5462 22.2337 19.3051C22.4748 19.064 22.8019 18.9285 23.1429 18.9285ZM23.1429 23.2142C23.3971 23.2142 23.6457 23.2896 23.8572 23.4309C24.0686 23.5722 24.2334 23.773 24.3307 24.0079C24.428 24.2428 24.4535 24.5013 24.4039 24.7508C24.3543 25.0002 24.2318 25.2292 24.052 25.4091C23.8722 25.5889 23.6431 25.7113 23.3937 25.7609C23.1443 25.8105 22.8858 25.7851 22.6508 25.6878C22.4159 25.5905 22.2151 25.4257 22.0738 25.2142C21.9325 25.0028 21.8571 24.7542 21.8571 24.4999C21.8571 24.1589 21.9926 23.8319 22.2337 23.5908C22.4748 23.3497 22.8019 23.2142 23.1429 23.2142ZM23.1429 27.4999C23.3971 27.4999 23.6457 27.5753 23.8572 27.7166C24.0686 27.8579 24.2334 28.0587 24.3307 28.2936C24.428 28.5285 24.4535 28.7871 24.4039 29.0365C24.3543 29.2859 24.2318 29.515 24.052 29.6948C23.8722 29.8746 23.6431 29.997 23.3937 30.0466C23.1443 30.0963 22.8858 30.0708 22.6508 29.9735C22.4159 29.8762 22.2151 29.7114 22.0738 29.4999C21.9325 29.2885 21.8571 29.0399 21.8571 28.7856C21.8571 28.4446 21.9926 28.1176 22.2337 27.8765C22.4748 27.6354 22.8019 27.4999 23.1429 27.4999ZM18.8571 23.2142C19.1114 23.2142 19.36 23.2896 19.5714 23.4309C19.7829 23.5722 19.9477 23.773 20.045 24.0079C20.1423 24.2428 20.1678 24.5013 20.1182 24.7508C20.0685 25.0002 19.9461 25.2292 19.7663 25.4091C19.5865 25.5889 19.3574 25.7113 19.108 25.7609C18.8586 25.8105 18.6001 25.7851 18.3651 25.6878C18.1302 25.5905 17.9294 25.4257 17.7881 25.2142C17.6468 25.0028 17.5714 24.7542 17.5714 24.4999C17.5714 24.1589 17.7069 23.8319 17.948 23.5908C18.1891 23.3497 18.5162 23.2142 18.8571 23.2142ZM18.8571 27.4999C19.1114 27.4999 19.36 27.5753 19.5714 27.7166C19.7829 27.8579 19.9477 28.0587 20.045 28.2936C20.1423 28.5285 20.1678 28.7871 20.1182 29.0365C20.0685 29.2859 19.9461 29.515 19.7663 29.6948C19.5865 29.8746 19.3574 29.997 19.108 30.0466C18.8586 30.0963 18.6001 30.0708 18.3651 29.9735C18.1302 29.8762 17.9294 29.7114 17.7881 29.4999C17.6468 29.2885 17.5714 29.0399 17.5714 28.7856C17.5714 28.4446 17.7069 28.1176 17.948 27.8765C18.1891 27.6354 18.5162 27.4999 18.8571 27.4999ZM14.5714 23.2142C14.8257 23.2142 15.0743 23.2896 15.2857 23.4309C15.4972 23.5722 15.662 23.773 15.7593 24.0079C15.8566 24.2428 15.882 24.5013 15.8324 24.7508C15.7828 25.0002 15.6604 25.2292 15.4806 25.4091C15.3008 25.5889 15.0717 25.7113 14.8223 25.7609C14.5729 25.8105 14.3143 25.7851 14.0794 25.6878C13.8445 25.5905 13.6437 25.4257 13.5024 25.2142C13.3611 25.0028 13.2857 24.7542 13.2857 24.4999C13.2857 24.1589 13.4212 23.8319 13.6623 23.5908C13.9034 23.3497 14.2304 23.2142 14.5714 23.2142ZM14.5714 27.4999C14.8257 27.4999 15.0743 27.5753 15.2857 27.7166C15.4972 27.8579 15.662 28.0587 15.7593 28.2936C15.8566 28.5285 15.882 28.7871 15.8324 29.0365C15.7828 29.2859 15.6604 29.515 15.4806 29.6948C15.3008 29.8746 15.0717 29.997 14.8223 30.0466C14.5729 30.0963 14.3143 30.0708 14.0794 29.9735C13.8445 29.8762 13.6437 29.7114 13.5024 29.4999C13.3611 29.2885 13.2857 29.0399 13.2857 28.7856C13.2857 28.4446 13.4212 28.1176 13.6623 27.8765C13.9034 27.6354 14.2304 27.4999 14.5714 27.4999Z" fill="#91CB82"/>
</g>
</svg>
