<svg width="64" height="61" viewBox="0 0 64 61" fill="none" xmlns="http://www.w3.org/2000/svg">
<g id="customer service">
<path id="Vector" d="M44.4024 31.3003C44.319 32.6194 43.247 33.6891 41.9278 33.7726C40.3267 33.8737 39.0068 32.5553 39.1087 30.9558C39.1914 29.6374 40.2626 28.5669 41.5833 28.4835C43.1836 28.3831 44.5028 29.7007 44.4024 31.3003ZM34.6839 31.3003C34.5998 32.6194 33.5285 33.6891 32.2093 33.7726C30.6082 33.8737 29.2883 32.5553 29.3895 30.9558C29.4729 29.6374 30.5441 28.5669 31.8641 28.4835C33.4652 28.3831 34.7843 29.7007 34.6839 31.3003ZM24.9655 31.3003C24.8813 32.6194 23.81 33.6891 22.4901 33.7726C20.8898 33.8737 19.5698 32.5553 19.671 30.9558C19.7544 29.6374 20.8257 28.5669 22.1456 28.4835C23.7467 28.3831 25.0659 29.7007 24.9655 31.3003ZM31.8679 13.0481C21.1114 13.0481 12.3916 21.072 12.3916 30.9697C12.3916 40.8681 21.1114 48.8929 31.8679 48.8929C33.6845 48.8929 34.7318 48.8689 35.9892 48.6859C37.4567 48.4727 38.8963 49.2149 39.5791 50.5302L40.8813 53.0404L42.5256 49.71C43.4872 47.7621 44.7724 45.9904 46.3372 44.4843C49.3292 41.605 50.626 39.4107 51.5034 34.2236C51.7096 33.0072 51.6826 31.8386 51.6826 31.0137C51.6826 21.1153 42.6245 13.0481 31.8679 13.0481Z" fill="#32A071"/>
<path id="Vector_2" d="M0 30.5673C0 33.469 1.67214 35.9814 4.10581 37.194V23.9413C1.67214 25.1539 0 27.6656 0 30.5673Z" fill="#32A071"/>
<g id="Clip path group">
<mask id="mask0_150_3051" style="mask-type:luminance" maskUnits="userSpaceOnUse" x="59" y="23" width="5" height="15">
<g id="9cd91befc1">
<path id="Vector_3" d="M59.8818 23.9142H64V37.2589H59.8818V23.9142Z" fill="white"/>
</g>
</mask>
<g mask="url(#mask0_150_3051)">
<g id="Group">
<path id="Vector_4" d="M59.8943 23.9413V37.194C62.328 35.9814 64.0001 33.469 64.0001 30.5673C64.0001 27.6656 62.328 25.1539 59.8943 23.9413Z" fill="#32A071"/>
</g>
</g>
</g>
<g id="Clip path group_2">
<mask id="mask1_150_3051" style="mask-type:luminance" maskUnits="userSpaceOnUse" x="4" y="0" width="56" height="61">
<g id="c99d8681be">
<path id="Vector_5" d="M4.05249 0H59.9567V60.7978H4.05249V0Z" fill="white"/>
</g>
</mask>
<g mask="url(#mask1_150_3051)">
<g id="Group_2">
<path id="Vector_6" d="M59.8941 22.9874C59.8941 21.6574 58.9827 20.5391 57.7493 20.2232C57.3376 19.1906 56.8765 18.1819 56.3683 17.2025C55.7118 15.939 54.9742 14.7241 54.1656 13.5678C54.5873 12.6248 54.4459 11.5512 53.7863 10.7519C53.5593 10.4754 53.3245 10.2004 53.0889 9.9324C47.4415 3.5273 39.9049 -0.000793457 31.8671 -0.000793457C23.83 -0.000793457 16.2942 3.5273 10.6483 9.9324C10.4119 10.2004 10.1772 10.4754 9.95008 10.7511C9.2905 11.5505 9.14839 12.6248 9.57086 13.5678C8.76144 14.7241 8.02384 15.939 7.36657 17.2033C6.84215 18.212 6.36947 19.2531 5.94777 20.3197C4.87111 20.7291 4.10571 21.7687 4.10571 22.9874V38.1471C4.10571 39.5698 5.14761 40.7492 6.51004 40.9654C7.72803 44.5908 9.757 47.9235 12.4788 50.6908C16.3027 54.5781 21.2681 57.1214 26.6236 57.9718C26.8136 59.5636 28.1683 60.7978 29.8134 60.7978C31.5882 60.7978 33.0264 59.3612 33.0264 57.5879C33.0264 55.8146 31.5882 54.3773 29.8134 54.3773C28.5321 54.3773 27.426 55.1272 26.9101 56.2108C18.2722 54.8337 11.1503 48.7167 8.30498 40.6665C9.20554 40.1861 9.81879 39.2384 9.81879 38.1471V22.9874C9.81879 22.1996 9.49903 21.486 8.98233 20.9701C8.84022 20.8279 8.68343 20.702 8.51506 20.5924C9.33993 18.6321 10.3409 16.8001 11.4963 15.1195C11.6747 15.1558 11.8586 15.1751 12.047 15.1751C12.8595 15.1751 13.6234 14.8137 14.1432 14.1834C17.0472 10.6607 20.7105 8.05095 24.7375 6.63524C27.0376 5.82504 29.4357 5.41415 31.8671 5.41415C38.5232 5.41415 44.9831 8.614 49.5917 14.1919C50.1076 14.8167 50.8684 15.1751 51.6801 15.1751H51.6894C51.8771 15.1751 52.0609 15.1558 52.2393 15.1195C53.4187 16.8349 54.4405 18.7163 55.2793 20.7391C55.1882 20.8109 55.1001 20.8874 55.0182 20.9701C54.5008 21.486 54.181 22.1996 54.181 22.9874V38.1471C54.181 39.7235 55.4608 41.0009 57.0379 41.0009C58.6151 41.0009 59.8941 39.7235 59.8941 38.1471V22.9874Z" fill="#32A071"/>
</g>
</g>
</g>
</g>
</svg>
