<svg width="32" height="33" viewBox="0 0 32 33" fill="none" xmlns="http://www.w3.org/2000/svg">
<g id="bi:door-closed-fill">
<path id="Vector" d="M22.5778 4.5C23.0257 4.5 23.4553 4.67794 23.772 4.99466C24.0887 5.31139 24.2667 5.74097 24.2667 6.18889V28.1444H26.8C27.024 28.1444 27.2387 28.2334 27.3971 28.3918C27.5555 28.5501 27.6444 28.7649 27.6444 28.9889C27.6444 29.2128 27.5555 29.4276 27.3971 29.586C27.2387 29.7444 27.024 29.8333 26.8 29.8333H4.84444C4.62048 29.8333 4.4057 29.7444 4.24733 29.586C4.08897 29.4276 4 29.2128 4 28.9889C4 28.7649 4.08897 28.5501 4.24733 28.3918C4.4057 28.2334 4.62048 28.1444 4.84444 28.1444H7.37778V6.18889C7.37778 5.74097 7.55571 5.31139 7.87244 4.99466C8.18917 4.67794 8.61875 4.5 9.06667 4.5H22.5778ZM19.2 19.7C19.6479 19.7 20.0775 19.5221 20.3942 19.2053C20.711 18.8886 20.8889 18.459 20.8889 18.0111C20.8889 17.5632 20.711 17.1336 20.3942 16.8169C20.0775 16.5002 19.6479 16.3222 19.2 16.3222C18.7521 16.3222 18.3225 16.5002 18.0058 16.8169C17.689 17.1336 17.5111 17.5632 17.5111 18.0111C17.5111 18.459 17.689 18.8886 18.0058 19.2053C18.3225 19.5221 18.7521 19.7 19.2 19.7Z" fill="#91CB82"/>
</g>
</svg>
