<svg width="49" height="48" viewBox="0 0 49 48" fill="none" xmlns="http://www.w3.org/2000/svg">
<g id="Platform=Facebook, Shape=Original, Colored=True">
<path id="Vector" d="M21.5 41.8C13 40.3 6.5 32.9 6.5 24C6.5 14.1 14.6 6 24.5 6C34.4 6 42.5 14.1 42.5 24C42.5 32.9 36 40.3 27.5 41.8L26.5 41H22.5L21.5 41.8Z" fill="url(#paint0_linear_414_3001)"/>
<path id="Vector_2" d="M31.5 29L32.3 24H27.5V20.5C27.5 19.1 28 18 30.2 18H32.5V13.4C31.2 13.2 29.8 13 28.5 13C24.4 13 21.5 15.5 21.5 20V24H17V29H21.5V41.7C22.5 41.9 23.5 42 24.5 42C25.5 42 26.5 41.9 27.5 41.7V29H31.5Z" fill="white"/>
</g>
<defs>
<linearGradient id="paint0_linear_414_3001" x1="24.5" y1="40.754" x2="24.5" y2="6" gradientUnits="userSpaceOnUse">
<stop stop-color="#0062E0"/>
<stop offset="1" stop-color="#19AFFF"/>
</linearGradient>
</defs>
</svg>
