<svg width="49" height="48" viewBox="0 0 49 48" fill="none" xmlns="http://www.w3.org/2000/svg">
<g id="Platform=Google, Shape=Original, Colored=True">
<g id="Group">
<path id="Shape" fill-rule="evenodd" clip-rule="evenodd" d="M40.82 24.3864C40.82 23.181 40.7118 22.0219 40.5109 20.9091H24.5V27.4851H33.6491C33.255 29.6101 32.0573 31.4105 30.2568 32.616V36.8814H35.7509C38.9654 33.9219 40.82 29.5637 40.82 24.3864Z" fill="#4285F4"/>
<path id="Shape_2" fill-rule="evenodd" clip-rule="evenodd" d="M24.5 41.0001C29.09 41.0001 32.9382 39.4778 35.7509 36.8814L30.2568 32.616C28.7345 33.636 26.7873 34.2387 24.5 34.2387C20.0722 34.2387 16.3245 31.2482 14.9877 27.23H9.30814V31.6346C12.1054 37.1905 17.8545 41.0001 24.5 41.0001Z" fill="#34A853"/>
<path id="Shape_3" fill-rule="evenodd" clip-rule="evenodd" d="M14.9877 27.2301C14.6477 26.2101 14.4545 25.1206 14.4545 24.0001C14.4545 22.8797 14.6477 21.7901 14.9877 20.7701V16.3656H9.30814C8.15677 18.6606 7.49995 21.2569 7.49995 24.0001C7.49995 26.7433 8.15677 29.3397 9.30814 31.6347L14.9877 27.2301Z" fill="#FBBC05"/>
<path id="Shape_4" fill-rule="evenodd" clip-rule="evenodd" d="M24.5 13.7614C26.9959 13.7614 29.2368 14.6192 30.9986 16.3037L35.8745 11.4278C32.9304 8.68461 29.0823 7.00006 24.5 7.00006C17.8545 7.00006 12.1054 10.8096 9.30814 16.3655L14.9877 20.7701C16.3245 16.7519 20.0722 13.7614 24.5 13.7614Z" fill="#EA4335"/>
</g>
</g>
</svg>
