<svg width="24" height="24" viewBox="0 0 24 24" fill="none" xmlns="http://www.w3.org/2000/svg">
<g id="Home">
<g id="Group 41">
<path id="Vector" d="M2 9.65356L11.0033 2.45092C11.7548 1.84969 12.8227 1.84969 13.5742 2.45092L22.5775 9.65356" stroke="#91CB82" stroke-width="1.5" stroke-linecap="round" stroke-linejoin="round"/>
<path id="Vector_2" d="M9.69356 3.531L5.57805 6.87485C4.83083 7.48197 4.45722 7.78553 4.25748 8.20515C4.05775 8.62478 4.05775 9.10617 4.05775 10.069V13.7689C4.05775 17.649 4.05775 19.5892 5.26315 20.7945C6.46857 21.9999 8.40862 21.9999 12.2888 21.9999C16.1689 21.9999 18.109 21.9999 19.3143 20.7945C20.5198 19.5892 20.5198 17.649 20.5198 13.7689V10.069C20.5198 9.10617 20.5198 8.62478 20.3201 8.20515C20.1203 7.78553 19.7467 7.48197 18.9995 6.87485L14.884 3.531C13.6409 2.52099 13.0194 2.01599 12.2888 2.01599C11.5582 2.01599 10.9366 2.52099 9.69356 3.531Z" stroke="#91CB82" stroke-width="1.5"/>
<path id="Vector_3" d="M9.97363 16.084H14.6036" stroke="#91CB82" stroke-width="1.5" stroke-linecap="round"/>
</g>
</g>
</svg>
