<svg width="24" height="14" viewBox="0 0 24 14" fill="none" xmlns="http://www.w3.org/2000/svg">
<g id="hotel">
<g id="Clip path group">
<mask id="mask0_414_4242" style="mask-type:luminance" maskUnits="userSpaceOnUse" x="0" y="0" width="2" height="14">
<g id="5b5ed59056">
<path id="Vector" d="M0 0.5H1.74132V13.8438H0V0.5Z" fill="white"/>
</g>
</mask>
<g mask="url(#mask0_414_4242)">
<g id="Group">
<path id="Vector_2" fill-rule="evenodd" clip-rule="evenodd" d="M0.00592041 1.27845V12.9543C0.00592041 13.4145 0.380329 13.7883 0.841685 13.7883C1.30275 13.7883 1.67715 13.4145 1.67715 12.9543V1.27845C1.67715 0.817979 1.30275 0.444458 0.841685 0.444458C0.380329 0.444458 0.00592041 0.817979 0.00592041 1.27845Z" fill="#B7B4B4"/>
</g>
</g>
</g>
<g id="Clip path group_2">
<mask id="mask1_414_4242" style="mask-type:luminance" maskUnits="userSpaceOnUse" x="0" y="9" width="24" height="5">
<g id="84c2ca4344">
<path id="Vector_3" d="M0 9.3042H24V13.8438H0V9.3042Z" fill="white"/>
</g>
</mask>
<g mask="url(#mask1_414_4242)">
<g id="Group_2">
<path id="Vector_4" fill-rule="evenodd" clip-rule="evenodd" d="M0.841685 11.0083H22.2871V12.9543C22.2871 13.4145 22.6615 13.7883 23.1228 13.7883C23.5839 13.7883 23.9583 13.4145 23.9583 12.9543V10.1743C23.9583 9.71385 23.5839 9.34033 23.1228 9.34033H0.841685C0.380329 9.34033 0.00592041 9.71385 0.00592041 10.1743C0.00592041 10.6345 0.380329 11.0083 0.841685 11.0083Z" fill="#B7B4B4"/>
</g>
</g>
</g>
<path id="Vector_5" fill-rule="evenodd" clip-rule="evenodd" d="M23.9583 6.83841C23.9583 4.53547 22.0877 2.66846 19.7806 2.66846C15.8213 2.66846 9.75413 2.66846 9.75413 2.66846C9.29277 2.66846 8.91837 3.04198 8.91837 3.50245V10.1744C8.91837 10.6345 9.29277 11.0084 9.75413 11.0084H23.1228C23.5839 11.0084 23.9583 10.6345 23.9583 10.1744V6.83841ZM22.2871 6.83841V9.34038H10.5896V4.33644H19.7806C21.1653 4.33644 22.2871 5.45611 22.2871 6.83841Z" fill="#B7B4B4"/>
<path id="Vector_6" fill-rule="evenodd" clip-rule="evenodd" d="M5.29792 2.66846C3.60657 2.66846 2.23404 4.03833 2.23404 5.72642C2.23404 7.41422 3.60657 8.78439 5.29792 8.78439C6.98897 8.78439 8.3615 7.41422 8.3615 5.72642C8.3615 4.03833 6.98897 2.66846 5.29792 2.66846ZM5.29792 4.33644C6.06655 4.33644 6.69027 4.95897 6.69027 5.72642C6.69027 6.49358 6.06655 7.11641 5.29792 7.11641C4.52899 7.11641 3.90527 6.49358 3.90527 5.72642C3.90527 4.95897 4.52899 4.33644 5.29792 4.33644Z" fill="#B7B4B4"/>
</g>
</svg>
