<svg width="11" height="15" viewBox="0 0 11 15" fill="none" xmlns="http://www.w3.org/2000/svg">
<g id="location icon">
<g id="Clip path group">
<mask id="mask0_414_4296" style="mask-type:luminance" maskUnits="userSpaceOnUse" x="0" y="0" width="11" height="15">
<g id="bab7f2e21d">
<path id="Vector" d="M0.210938 0H10.1797V14.938H0.210938V0Z" fill="white"/>
</g>
</mask>
<g mask="url(#mask0_414_4296)">
<g id="Group">
<path id="Vector_2" d="M5.19531 -0.000610352C2.44709 -0.000610352 0.210938 2.23278 0.210938 4.97891C0.210938 7.6204 4.7417 14.5063 4.93548 14.7977C4.99304 14.8841 5.09066 14.9376 5.19531 14.9376C5.30015 14.9376 5.39722 14.8841 5.45514 14.7977C5.64821 14.5063 10.1797 7.6204 10.1797 4.97891C10.1797 2.23278 7.94354 -0.000610352 5.19531 -0.000610352Z" fill="#61AD92"/>
</g>
</g>
</g>
<path id="Vector_3" d="M5.19532 7.15783C3.99289 7.15783 3.01456 6.18062 3.01456 4.97936C3.01456 3.77793 3.99289 2.8009 5.19532 2.8009C6.39775 2.8009 7.37607 3.77793 7.37607 4.97936C7.37607 6.18062 6.39775 7.15783 5.19532 7.15783Z" fill="white"/>
</g>
</svg>
