<svg width="64" height="64" viewBox="0 0 64 64" fill="none" xmlns="http://www.w3.org/2000/svg">
<g id="Profile">
<g id="Clip path group">
<mask id="mask0_981_4807" style="mask-type:luminance" maskUnits="userSpaceOnUse" x="0" y="0" width="64" height="64">
<g id="10aa37b09e">
<path id="Vector" d="M0 0H64V64H0V0Z" fill="white"/>
</g>
</mask>
<g mask="url(#mask0_981_4807)">
<g id="Group">
<path id="Vector_2" d="M64.0023 32.0016C64.0023 40.1883 60.9298 47.6551 55.8711 53.3141C50.0123 59.8743 41.4892 64.0023 32.0015 64.0023C22.5131 64.0023 13.9869 59.8743 8.13117 53.3141C3.07253 47.6551 0 40.1883 0 32.0016C0 14.3287 14.3256 0.000793457 32.0015 0.000793457C49.6736 0.000793457 64.0023 14.3287 64.0023 32.0016Z" fill="#61AD92"/>
</g>
</g>
</g>
<path id="Vector_3" d="M32.0028 37.8958C37.8022 37.8958 43.0846 31.3341 43.0846 24.1288C43.0846 17.321 41.7683 10.5895 32.0028 10.5895C22.2351 10.5895 20.918 17.321 20.918 24.1288C20.918 31.3341 26.2011 37.8958 32.0028 37.8958Z" fill="#F2F2F2"/>
<g id="Clip path group_2">
<mask id="mask1_981_4807" style="mask-type:luminance" maskUnits="userSpaceOnUse" x="8" y="37" width="48" height="27">
<g id="bd9d6ad331">
<path id="Vector_4" d="M8.09961 37.3334H55.9021V64H8.09961V37.3334Z" fill="white"/>
</g>
</mask>
<g mask="url(#mask1_981_4807)">
<g id="Group_2">
<path id="Vector_5" d="M55.8716 53.3142C50.0128 59.8744 41.4897 64.0024 32.002 64.0024C22.5136 64.0024 13.9874 59.8744 8.13166 53.3142C8.03058 49.362 10.6625 40.2046 24.0869 37.3859C26.3832 39.7293 29.2096 41.0549 32.002 41.0549C34.7937 41.0549 37.6178 39.7293 39.9141 37.3859C53.3408 40.2046 55.9704 49.362 55.8716 53.3142Z" fill="#F2F2F2"/>
</g>
</g>
</g>
</g>
</svg>
