<svg width="64" height="43" viewBox="0 0 64 43" fill="none" xmlns="http://www.w3.org/2000/svg">
<g id="safe payment">
<g id="Clip path group">
<mask id="mask0_150_3088" style="mask-type:luminance" maskUnits="userSpaceOnUse" x="3" y="0" width="20" height="21">
<g id="ea1d99cb4e">
<path id="Vector" d="M3.95093 0H22.1238V20.7276H3.95093V0Z" fill="white"/>
</g>
</mask>
<g mask="url(#mask0_150_3088)">
<g id="Group">
<path id="Vector_2" d="M22.0193 4.51308C22.0124 4.18361 21.9892 3.83484 21.8334 3.52543C21.6536 3.16586 21.3411 2.9228 20.882 2.77697C20.51 2.66354 20.0972 2.63037 19.7354 2.60027H19.7284C17.9769 2.45753 16.2647 1.84873 14.7847 0.834069C14.7384 0.803977 14.6921 0.770798 14.6451 0.740705C14.1929 0.424347 13.7246 0.0987296 13.1528 0.0717235C12.5108 0.0385445 11.946 0.408143 11.4475 0.730674C11.4074 0.75768 11.3673 0.783915 11.3241 0.810921C10.1736 1.55243 8.91746 2.08793 7.59107 2.40043C7.00542 2.54009 6.38042 2.63345 5.61962 2.69364C4.89817 2.75305 4.39585 3.07944 4.15665 3.63808C3.99385 4.03083 3.9707 4.44672 3.96067 4.87882C3.95372 5.2083 3.95372 5.53777 3.95681 5.85722C4.00002 9.56324 4.77857 12.6936 6.26391 15.1589C6.85264 16.1335 7.58721 17.0517 8.44215 17.8927C9.24307 18.6782 10.1543 19.3966 11.1482 20.0285C11.6999 20.3811 12.3017 20.7044 12.9499 20.7044C12.9861 20.7044 13.0263 20.7006 13.0633 20.7006C13.635 20.6674 14.1435 20.3811 14.6088 20.0787C15.0872 19.7662 15.5463 19.4267 15.9915 19.054C15.4931 18.7245 15.044 18.3287 14.659 17.8765C14.3133 18.1489 13.9537 18.412 13.578 18.6612C13.3588 18.8078 13.1759 18.8842 12.9931 18.8912L13.0633 1.97141L13.0494 1.82172C13.0533 1.82172 13.0594 1.81864 13.0633 1.81864C13.1158 1.81864 13.1628 1.84487 13.2222 1.88808C14.233 2.6566 15.3534 3.25922 16.554 3.68515C17.6744 4.08407 18.9074 4.34024 20.2107 4.44672H20.2138C20.3002 4.45675 20.3665 4.53006 20.3704 4.61956C20.3835 5.60104 20.3202 6.58561 20.1837 7.56709C20.7593 7.63654 21.3141 7.78314 21.8295 7.99611C21.9892 6.85876 22.0525 5.69055 22.0193 4.51308Z" fill="#61AD92"/>
</g>
</g>
</g>
<path id="Vector_3" d="M22.7706 12.2647C22.7567 12.3511 22.6935 12.4175 22.631 12.4777C21.374 13.7346 20.1209 14.9954 18.864 16.2531C18.7575 16.3596 18.6209 16.4761 18.4751 16.443C18.3949 16.4229 18.3285 16.3627 18.2722 16.3033C17.5939 15.6243 16.9157 14.946 16.2375 14.267C16.158 14.1876 16.0746 14.0973 16.0746 13.9877C16.0746 13.8781 16.158 13.7879 16.2344 13.7084C16.4404 13.5016 16.6433 13.2956 16.8493 13.0896C16.9288 13.0062 17.0253 12.9167 17.1387 12.9129C17.2683 12.9067 17.3748 13.0062 17.4674 13.0957C17.827 13.4553 18.1858 13.8149 18.5446 14.1737C19.4921 13.2223 20.4435 12.2678 21.3941 11.3164C21.4774 11.2331 21.5669 11.1467 21.6834 11.1436C21.8092 11.1397 21.9126 11.2362 22.0021 11.3264C22.202 11.5255 22.401 11.7284 22.6009 11.9283C22.6935 12.0217 22.7899 12.1382 22.7706 12.2647ZM19.4226 8.95453C16.7529 8.95453 14.5854 11.1235 14.5854 13.7948C14.5854 16.4692 16.7529 18.6382 19.4226 18.6382C22.0955 18.6382 24.2629 16.4692 24.2629 13.7948C24.2629 11.1235 22.0955 8.95453 19.4226 8.95453Z" fill="#61AD92"/>
<path id="Vector_4" d="M63.9283 7.30085V10.8973H26.3411C25.9723 10.0254 25.4438 9.24375 24.7717 8.57168C24.6752 8.47523 24.5788 8.38573 24.4792 8.29545C24.6521 7.03156 24.7223 5.73372 24.6853 4.43974C24.6853 4.39344 24.6822 4.3402 24.6822 4.28387H60.9129C62.5718 4.28387 63.9283 5.64421 63.9283 7.30085Z" fill="#91CB82"/>
<path id="Vector_5" d="M2.10192 10.8973H0.157471V7.30088C0.157471 6.22989 0.725372 5.28159 1.57645 4.74609C1.57645 4.77233 1.57645 4.79625 1.57645 4.8194C1.56642 5.17819 1.56642 5.53776 1.57028 5.88344C1.59034 7.67048 1.76935 9.34332 2.10192 10.8973Z" fill="#91CB82"/>
<path id="Vector_6" d="M5.50624 18.2554H0.157471V10.8973H2.10192C2.54404 12.9699 3.25932 14.8256 4.24312 16.456C4.61503 17.0779 5.04096 17.6805 5.50624 18.2554Z" fill="#61AD92"/>
<path id="Vector_7" d="M63.9282 10.8973V18.2554H25.4197C25.7954 17.7669 26.1049 17.2307 26.3479 16.6589C26.7329 15.7476 26.9297 14.7793 26.9297 13.7878C26.9297 12.7901 26.7329 11.8256 26.3479 10.9166C26.3479 10.9105 26.3441 10.9035 26.341 10.8973H63.9282Z" fill="#61AD92"/>
<path id="Vector_8" d="M46.5542 30.4182H51.6607V28.7979H46.5542V30.4182Z" fill="#61AD92"/>
<path id="Vector_9" d="M46.5542 31.1497C46.5542 31.9221 47.1823 32.554 47.9539 32.554H51.6607V31.0903H46.5542V31.1497Z" fill="#61AD92"/>
<path id="Vector_10" d="M56.7436 23.5948H52.3354V25.584H58.1433V24.9953C58.1433 24.2268 57.5145 23.5948 56.7436 23.5948Z" fill="#61AD92"/>
<path id="Vector_11" d="M52.3354 28.1296H58.1433V26.2531H52.3354V28.1296Z" fill="#61AD92"/>
<path id="Vector_12" d="M48.8451 23.5948H47.9539C47.1823 23.5948 46.5542 24.2268 46.5542 24.9953V28.1296H48.8451V23.5948Z" fill="#61AD92"/>
<path id="Vector_13" d="M49.5195 28.1296H51.6607V23.5948H49.5195V28.1296Z" fill="#61AD92"/>
<path id="Vector_14" d="M52.3354 32.554H54.6827V28.7979H52.3354V32.554Z" fill="#61AD92"/>
<path id="Vector_15" d="M55.3542 32.554H56.7439C57.5147 32.554 58.1436 31.9221 58.1436 31.1497V28.7979H55.3542V32.554Z" fill="#61AD92"/>
<g id="Clip path group_2">
<mask id="mask1_150_3088" style="mask-type:luminance" maskUnits="userSpaceOnUse" x="0" y="18" width="64" height="25">
<g id="79acb32298">
<path id="Vector_16" d="M0 18.1597H64V42.6667H0V18.1597Z" fill="white"/>
</g>
</mask>
<g mask="url(#mask1_150_3088)">
<g id="Group_2">
<path id="Vector_17" d="M58.6984 31.7284C58.6984 32.4638 58.0965 33.0664 57.3619 33.0664H47.3357C46.6004 33.0664 45.9993 32.4638 45.9993 31.7284V24.4005C45.9993 23.6613 46.6004 23.0625 47.3357 23.0625H57.3619C58.0965 23.0625 58.6984 23.6613 58.6984 24.4005V31.7284ZM38.7346 26.8982C38.7346 27.0417 38.6181 27.1544 38.4792 27.1544H24.5788C24.4391 27.1544 24.3234 27.0417 24.3234 26.8982V25.0818C24.3234 24.9422 24.4391 24.8295 24.5788 24.8295H38.4792C38.6181 24.8295 38.7346 24.9422 38.7346 25.0818V26.8982ZM38.7346 37.1412C38.7346 37.2809 38.6181 37.3974 38.4792 37.3974H24.5788C24.4391 37.3974 24.3234 37.2809 24.3234 37.1412V35.2215C24.3234 35.0787 24.4391 34.9653 24.5788 34.9653H38.4792C38.6181 34.9653 38.7346 35.0787 38.7346 35.2215V37.1412ZM20.7524 26.8982C20.7524 27.0417 20.6397 27.1544 20.5001 27.1544H6.60037C6.46071 27.1544 6.3442 27.0417 6.3442 26.8982V25.0818C6.3442 24.9422 6.46071 24.8295 6.60037 24.8295H20.5001C20.6397 24.8295 20.7524 24.9422 20.7524 25.0818V26.8982ZM20.7524 37.1412C20.7524 37.2809 20.6397 37.3974 20.5001 37.3974H6.60037C6.46071 37.3974 6.3442 37.2809 6.3442 37.1412V35.2215C6.3442 35.0787 6.46071 34.9653 6.60037 34.9653H20.5001C20.6397 34.9653 20.7524 35.0787 20.7524 35.2215V37.1412ZM25.4198 18.2554C25.2207 18.5185 25.0047 18.7647 24.7717 19.0008C24.0934 19.676 23.3056 20.2084 22.4283 20.581C21.5209 20.9638 20.5533 21.1598 19.5587 21.1598C18.9607 21.1598 18.3689 21.0903 17.7971 20.9468L17.757 20.9838C17.2354 21.4198 16.6899 21.8256 16.1312 22.1875C15.4499 22.6304 14.5224 23.149 13.3519 23.2161C13.2655 23.2223 13.1791 23.2223 13.0896 23.2223C11.7794 23.2223 10.7161 22.6536 9.93139 22.1582C8.78787 21.429 7.73695 20.6011 6.80948 19.6898C6.3442 19.2338 5.90824 18.7547 5.50624 18.2554H0.157471V39.6659C0.157471 41.3226 1.51395 42.6837 3.1729 42.6837H60.9129C62.5718 42.6837 63.9283 41.3226 63.9283 39.6659V18.2554H25.4198Z" fill="#91CB82"/>
</g>
</g>
</g>
</g>
</svg>
