<svg width="64" height="69" viewBox="0 0 64 69" fill="none" xmlns="http://www.w3.org/2000/svg">
<g id="time">
<g id="Clip path group">
<mask id="mask0_150_2994" style="mask-type:luminance" maskUnits="userSpaceOnUse" x="0" y="0" width="64" height="69">
<g id="536f548bce">
<path id="Vector" d="M0 0H64V68.7348H0V0Z" fill="white"/>
</g>
</mask>
<g mask="url(#mask0_150_2994)">
<g id="Group">
<path id="Vector_2" d="M62.3059 35.0016C61.3666 35.0016 60.6051 35.7631 60.6051 36.7032C60.6051 52.4804 47.7764 65.3167 32.0075 65.3167C16.2386 65.3167 3.41063 52.4804 3.41063 36.7032C3.41063 21.4979 15.3275 9.02989 30.3059 8.14627L27.9892 11.6799C27.6026 12.2693 28.2444 12.9917 28.8745 12.6758L40.2086 7.00579C40.7174 6.75142 40.7174 6.02491 40.2086 5.77137L28.8745 0.101382C28.2444 -0.214495 27.6026 0.507866 27.9892 1.09723L30.3691 4.72815C13.4829 5.58434 0.00830078 19.5985 0.00830078 36.7032C0.00830078 54.3574 14.3632 68.7207 32.0075 68.7207C49.6525 68.7207 64.0066 54.3574 64.0066 36.7032C64.0066 35.7631 63.2452 35.0016 62.3059 35.0016Z" fill="#32A071"/>
</g>
</g>
</g>
<path id="Vector_3" d="M44.9011 9.22354C45.1688 8.57516 44.8496 7.8262 44.202 7.55438L43.695 8.72562L43.2544 9.92512C43.4107 9.9883 43.5703 10.0191 43.729 10.0191C44.2278 10.0191 44.6975 9.71814 44.9011 9.22354Z" fill="#32A071"/>
<path id="Vector_4" d="M59.7788 28.2418L59.8112 28.3466C59.9841 28.8894 60.4854 29.236 61.0265 29.236C61.1545 29.236 61.285 29.2169 61.4139 29.1753C62.0847 28.9625 62.4563 28.2443 62.2426 27.5727L62.2244 27.5111C62.0224 26.8362 61.31 26.453 60.6367 26.6525C59.9617 26.8553 59.5776 27.566 59.7788 28.2418Z" fill="#32A071"/>
<path id="Vector_5" d="M47.0257 11.8512C47.2352 11.9792 47.4663 12.0399 47.694 12.0399C48.1221 12.0399 48.5403 11.8246 48.7813 11.4331C49.1512 10.8337 48.9659 10.0474 48.3657 9.67744L48.2776 9.62424C47.6708 9.26015 46.9193 9.47545 46.5577 10.0798C46.1953 10.6849 46.4222 11.4871 47.0257 11.8512Z" fill="#32A071"/>
<path id="Vector_6" d="M53.5794 17.2776C53.8312 17.5561 54.1779 17.6982 54.527 17.6982C54.8321 17.6982 55.138 17.5893 55.3815 17.3682C55.9044 16.8952 55.9451 16.0881 55.473 15.5652L55.4139 15.5004C54.9418 14.9775 54.1346 14.9368 53.6118 15.409C53.0889 15.8819 53.0482 16.6899 53.5212 17.2128L53.5794 17.2776Z" fill="#32A071"/>
<path id="Vector_7" d="M56.1937 20.6459C56.4405 21.0125 56.8437 21.2103 57.2543 21.2103C57.4987 21.2103 57.7456 21.1405 57.9651 20.9934C58.5494 20.6002 58.7049 19.8072 58.3117 19.222L58.2626 19.1496C57.8703 18.5653 57.0773 18.4082 56.4929 18.803C55.9085 19.1962 55.7523 19.9892 56.1463 20.5744L56.1937 20.6459Z" fill="#32A071"/>
<path id="Vector_8" d="M58.2468 24.2776L58.2842 24.3558C58.5029 24.8155 58.9601 25.0848 59.4372 25.0848C59.6209 25.0848 59.8079 25.0449 59.9842 24.9601C60.6209 24.6567 60.8911 23.8953 60.5885 23.2585L60.5511 23.1804C60.2477 22.5436 59.4871 22.2727 58.8495 22.5769C58.2136 22.8795 57.9434 23.6409 58.2468 24.2776Z" fill="#32A071"/>
<path id="Vector_9" d="M50.5121 14.3325C50.7499 14.5254 51.0342 14.6193 51.3176 14.6193C51.6884 14.6193 52.055 14.4589 52.3077 14.148C52.7515 13.6019 52.6709 12.798 52.1239 12.3525L52.0674 12.3059C51.5254 11.8546 50.7225 11.9277 50.2711 12.4689C49.8197 13.0108 49.8929 13.8155 50.434 14.2669L50.5121 14.3325Z" fill="#32A071"/>
<path id="Vector_10" d="M61.7939 30.9535C61.0965 31.0532 60.6127 31.7016 60.7141 32.3998L60.7299 32.5004C60.828 33.1305 61.3708 33.5794 61.9876 33.5794C62.0541 33.5794 62.1206 33.5744 62.1879 33.5636C62.8837 33.4539 63.3592 32.8005 63.2503 32.1039L63.2395 32.0324C63.1381 31.335 62.4905 30.8496 61.7939 30.9535Z" fill="#32A071"/>
<path id="Vector_11" d="M31.157 54.4431V60.8944C31.157 61.3641 31.5377 61.7448 32.0074 61.7448C32.477 61.7448 32.8577 61.3641 32.8577 60.8944V54.4431C32.8577 53.9717 32.477 53.5919 32.0074 53.5919C31.5377 53.5919 31.157 53.9717 31.157 54.4431Z" fill="#32A071"/>
<path id="Vector_12" d="M21.463 53.7797L19.374 57.35C19.256 57.5528 19.3233 57.8138 19.5261 57.9327C19.5943 57.9718 19.6666 57.9901 19.7398 57.9901C19.8869 57.9901 20.029 57.9144 20.108 57.7797L22.1978 54.2095C22.3158 54.0067 22.2485 53.7465 22.0448 53.6268C21.8437 53.5079 21.5827 53.5761 21.463 53.7797Z" fill="#32A071"/>
<path id="Vector_13" d="M14.3865 46.3724L10.8129 48.453C10.6101 48.5711 10.5402 48.8313 10.6583 49.0341C10.7373 49.1704 10.8802 49.246 11.0274 49.246C11.0997 49.246 11.1728 49.2269 11.2402 49.1879L14.8146 47.1081C15.0174 46.9892 15.0864 46.729 14.9683 46.5253C14.8495 46.3225 14.5885 46.2535 14.3865 46.3724Z" fill="#32A071"/>
<path id="Vector_14" d="M49.601 46.4223C49.3965 46.3035 49.1372 46.3724 49.0183 46.5753C48.9003 46.7773 48.9676 47.0383 49.1704 47.1572L52.7382 49.2478C52.8063 49.2877 52.8803 49.3059 52.9535 49.3059C53.0998 49.3059 53.2411 49.2311 53.32 49.0956C53.4389 48.8936 53.3708 48.6326 53.1679 48.5138L49.601 46.4223Z" fill="#32A071"/>
<path id="Vector_15" d="M14.8446 26.0573L11.2769 23.9667C11.0732 23.8479 10.8138 23.916 10.6941 24.1188C10.5761 24.3217 10.6443 24.5819 10.8463 24.7016L14.4148 26.7922C14.4822 26.8321 14.5562 26.8504 14.6293 26.8504C14.7756 26.8504 14.9177 26.7755 14.9975 26.6392C15.1156 26.4372 15.0474 26.1762 14.8446 26.0573Z" fill="#32A071"/>
<path id="Vector_16" d="M43.847 57.8146C43.926 57.9501 44.0673 58.0257 44.2144 58.0257C44.2876 58.0257 44.3608 58.0075 44.4281 57.9676C44.6309 57.8495 44.6999 57.5893 44.581 57.3857L42.5012 53.8105C42.3832 53.6068 42.1222 53.5386 41.9202 53.6558C41.7174 53.7739 41.6484 54.0349 41.7672 54.2377L43.847 57.8146Z" fill="#32A071"/>
<path id="Vector_17" d="M21.881 19.6167C21.9534 19.6167 22.0273 19.5976 22.0947 19.5585C22.2975 19.4413 22.3665 19.1803 22.2485 18.9775L20.1687 15.4006C20.0498 15.1969 19.7904 15.1288 19.5876 15.2468C19.384 15.3649 19.3158 15.6259 19.4338 15.8287L21.5128 19.4048C21.5918 19.5411 21.7339 19.6167 21.881 19.6167Z" fill="#32A071"/>
<path id="Vector_18" d="M14.1828 35.7564H7.73392C7.26343 35.7564 6.88354 36.1371 6.88354 36.6076C6.88354 37.0773 7.26343 37.458 7.73392 37.458H14.1828C14.6525 37.458 15.0332 37.0773 15.0332 36.6076C15.0332 36.1371 14.6525 35.7564 14.1828 35.7564Z" fill="#32A071"/>
<path id="Vector_19" d="M41.9701 19.5877C42.0374 19.6276 42.1106 19.6459 42.1837 19.6459C42.33 19.6459 42.473 19.5703 42.552 19.4356L44.6409 15.8654C44.7598 15.6617 44.6916 15.4015 44.4888 15.2827C44.2868 15.1638 44.0258 15.2311 43.9069 15.4356L41.8172 19.0059C41.6991 19.2087 41.7673 19.4689 41.9701 19.5877Z" fill="#32A071"/>
<path id="Vector_20" d="M49.4148 26.9002C49.488 26.9002 49.5611 26.882 49.6276 26.8429L53.2028 24.7614C53.4057 24.6442 53.4747 24.3832 53.3566 24.1804C53.2378 23.9767 52.9776 23.9086 52.7756 24.0266L49.2003 26.1072C48.9975 26.2253 48.9277 26.4863 49.0466 26.6891C49.1255 26.8254 49.2685 26.9002 49.4148 26.9002Z" fill="#32A071"/>
<path id="Vector_21" d="M49.8321 37.458H56.2809C56.7506 37.458 57.1313 37.0773 57.1313 36.6076C57.1313 36.1371 56.7506 35.7564 56.2809 35.7564H49.8321C49.3632 35.7564 48.9817 36.1371 48.9817 36.6076C48.9817 37.0773 49.3632 37.458 49.8321 37.458Z" fill="#32A071"/>
<path id="Vector_22" d="M33.6766 27.3799C33.8878 27.4813 34.1056 27.2577 34.0017 27.0499L32.2269 23.4971C32.1363 23.3167 31.8795 23.3167 31.788 23.4971L30.0133 27.0499C29.9094 27.2577 30.128 27.4813 30.3383 27.3799L31.1571 26.9884V34.8795C31.0499 34.9327 30.9485 34.9942 30.8537 35.0657L21.4397 29.4131L22.0532 29.064C22.256 28.9493 22.1987 28.6426 21.9676 28.6085L18.0399 28.0358C17.8404 28.0067 17.6924 28.2186 17.7897 28.3957L19.6883 31.8828C19.7997 32.0881 20.1081 32.0358 20.1455 31.8055L20.3217 30.7274L30.0781 36.5844C30.0773 36.5927 30.0756 36.5993 30.0756 36.6077C30.0756 37.675 30.941 38.5403 32.0075 38.5403C33.0748 38.5403 33.9393 37.675 33.9393 36.6077C33.9393 35.8471 33.4963 35.1954 32.8579 34.8803V26.9884L33.6766 27.3799Z" fill="#32A071"/>
</g>
</svg>
