<svg width="32" height="33" viewBox="0 0 32 33" fill="none" xmlns="http://www.w3.org/2000/svg">
<g id="timmer">
<path id="Vector" d="M16 4.5C9.37288 4.5 4 9.87288 4 16.5C4 23.1271 9.37288 28.5 16 28.5C22.6271 28.5 28 23.1271 28 16.5C28 9.87288 22.6271 4.5 16 4.5ZM21.5385 18.3462H16C15.7552 18.3462 15.5204 18.2489 15.3473 18.0758C15.1742 17.9027 15.0769 17.6679 15.0769 17.4231V9.11538C15.0769 8.87057 15.1742 8.63578 15.3473 8.46267C15.5204 8.28956 15.7552 8.19231 16 8.19231C16.2448 8.19231 16.4796 8.28956 16.6527 8.46267C16.8258 8.63578 16.9231 8.87057 16.9231 9.11538V16.5H21.5385C21.7833 16.5 22.0181 16.5973 22.1912 16.7704C22.3643 16.9435 22.4615 17.1783 22.4615 17.4231C22.4615 17.6679 22.3643 17.9027 22.1912 18.0758C22.0181 18.2489 21.7833 18.3462 21.5385 18.3462Z" fill="#91CB82"/>
</g>
</svg>
