<svg width="24" height="25" viewBox="0 0 24 25" fill="none" xmlns="http://www.w3.org/2000/svg">
<g id="Wifi">
<path id="Vector" d="M15.5818 15.0589C14.595 14.1818 13.3207 13.6974 12.0005 13.6974C10.6803 13.6974 9.40605 14.1818 8.4193 15.0589M18.4435 12.1972C16.6959 10.563 14.3927 9.65396 12.0001 9.65396C9.60748 9.65396 7.30425 10.563 5.55664 12.1972" stroke="#112211" stroke-width="2" stroke-linecap="round" stroke-linejoin="round"/>
<path id="Vector_2" d="M20.9864 9.03632C18.513 6.82979 15.3142 5.61035 11.9996 5.61035C8.68494 5.61035 5.48615 6.82979 3.0127 9.03632" stroke="#112211" stroke-width="2" stroke-linecap="round" stroke-linejoin="round"/>
<path id="Vector_3" d="M12 20C11.7033 20 11.4133 19.912 11.1666 19.7472C10.92 19.5824 10.7277 19.3481 10.6142 19.074C10.5006 18.7999 10.4709 18.4983 10.5288 18.2074C10.5867 17.9164 10.7296 17.6491 10.9393 17.4393C11.1491 17.2296 11.4164 17.0867 11.7074 17.0288C11.9983 16.9709 12.2999 17.0006 12.574 17.1142C12.8481 17.2277 13.0824 17.42 13.2472 17.6666C13.412 17.9133 13.5 18.2033 13.5 18.5C13.5 18.8978 13.342 19.2794 13.0607 19.5607C12.7794 19.842 12.3978 20 12 20Z" fill="#112211"/>
</g>
</svg>
